<?xml version="1.0" encoding="UTF-8"?>
<!DOCTYPE svg PUBLIC "-//W3C//DTD SVG 1.1//EN" "http://www.w3.org/Graphics/SVG/1.1/DTD/svg11.dtd">
<svg xmlns="http://www.w3.org/2000/svg" version="1.1" width="2000px" height="1500px" style="shape-rendering:geometricPrecision; text-rendering:geometricPrecision; image-rendering:optimizeQuality; fill-rule:evenodd; clip-rule:evenodd" xmlns:xlink="http://www.w3.org/1999/xlink">
<g><path style="opacity:1" fill="#ed3d37" d="M -0.5,-0.5 C 666.167,-0.5 1332.83,-0.5 1999.5,-0.5C 1999.5,499.5 1999.5,999.5 1999.5,1499.5C 1332.83,1499.5 666.167,1499.5 -0.5,1499.5C -0.5,999.5 -0.5,499.5 -0.5,-0.5 Z"/></g>
<g><path style="opacity:1" fill="#8d021f" d="M 974.5,280.5 C 1129.86,276.789 1258.36,333.123 1360,449.5C 1452.65,565.078 1485.65,696.078 1459,842.5C 1427.45,983.332 1349.28,1089.5 1224.5,1161C 1104.1,1224.19 979.103,1235.19 849.5,1194C 719.567,1147.4 626.067,1061.24 569,935.5C 511.591,794.684 518.257,657.017 589,522.5C 666.664,389.526 781.83,310.359 934.5,285C 947.999,283.615 961.332,282.115 974.5,280.5 Z"/></g>
<g><path style="opacity:1" fill="#ed3d37" d="M 784.5,754.5 C 784.44,753.957 784.107,753.624 783.5,753.5C 782.5,799.495 782.167,845.495 782.5,891.5C 754.833,891.5 727.167,891.5 699.5,891.5C 699.5,796.833 699.5,702.167 699.5,607.5C 726.169,607.333 752.835,607.5 779.5,608C 819,654.167 858.5,700.333 898,746.5C 898.5,700.168 898.667,653.835 898.5,607.5C 926.5,607.5 954.5,607.5 982.5,607.5C 982.5,702.167 982.5,796.833 982.5,891.5C 955.831,891.667 929.165,891.5 902.5,891C 862.957,845.628 823.624,800.128 784.5,754.5 Z"/></g>
<g><path style="opacity:1" fill="#ed3d37" d="M 1022.5,607.5 C 1114.83,607.5 1207.17,607.5 1299.5,607.5C 1299.5,631.833 1299.5,656.167 1299.5,680.5C 1268.5,680.5 1237.5,680.5 1206.5,680.5C 1206.5,750.833 1206.5,821.167 1206.5,891.5C 1176.17,891.5 1145.83,891.5 1115.5,891.5C 1115.5,821.167 1115.5,750.833 1115.5,680.5C 1084.5,680.5 1053.5,680.5 1022.5,680.5C 1022.5,656.167 1022.5,631.833 1022.5,607.5 Z"/></g>
<g><path style="opacity:1" fill="#d83032" d="M 784.5,754.5 C 783.833,800.167 783.167,845.833 782.5,891.5C 782.167,845.495 782.5,799.495 783.5,753.5C 784.107,753.624 784.44,753.957 784.5,754.5 Z"/></g>
</svg>
